<mxfile host="app.diagrams.net" agent="Mozilla/5.0 (X11; Ubuntu; Linux x86_64; rv:142.0) Gecko/20100101 Firefox/142.0" version="28.1.2">
  <diagram name="Page-1" id="Yr4BOMMFlqmh8c5RuyGG">
    <mxGraphModel dx="1426" dy="826" grid="1" gridSize="10" guides="1" tooltips="1" connect="1" arrows="1" fold="1" page="1" pageScale="1" pageWidth="827" pageHeight="1169" math="0" shadow="0">
      <root>
        <mxCell id="0" />
        <mxCell id="1" parent="0" />
        <mxCell id="uPZLiC8aT8bxoms4S5KQ-1" value="User" style="text;html=1;align=center;verticalAlign=middle;resizable=0;points=[];autosize=1;strokeColor=none;fillColor=none;" vertex="1" parent="1">
          <mxGeometry x="130" y="130" width="50" height="30" as="geometry" />
        </mxCell>
        <mxCell id="uPZLiC8aT8bxoms4S5KQ-2" value="System" style="text;html=1;align=center;verticalAlign=middle;resizable=0;points=[];autosize=1;strokeColor=none;fillColor=none;" vertex="1" parent="1">
          <mxGeometry x="290" y="130" width="60" height="30" as="geometry" />
        </mxCell>
        <mxCell id="uPZLiC8aT8bxoms4S5KQ-3" value="" style="endArrow=none;html=1;rounded=0;" edge="1" parent="1">
          <mxGeometry width="50" height="50" relative="1" as="geometry">
            <mxPoint x="90" y="760" as="sourcePoint" />
            <mxPoint x="90" y="120" as="targetPoint" />
          </mxGeometry>
        </mxCell>
        <mxCell id="uPZLiC8aT8bxoms4S5KQ-4" value="" style="endArrow=none;html=1;rounded=0;" edge="1" parent="1">
          <mxGeometry width="50" height="50" relative="1" as="geometry">
            <mxPoint x="220" y="760" as="sourcePoint" />
            <mxPoint x="220" y="120" as="targetPoint" />
          </mxGeometry>
        </mxCell>
        <mxCell id="uPZLiC8aT8bxoms4S5KQ-5" value="" style="endArrow=none;html=1;rounded=0;" edge="1" parent="1">
          <mxGeometry width="50" height="50" relative="1" as="geometry">
            <mxPoint x="700" y="750" as="sourcePoint" />
            <mxPoint x="700" y="130" as="targetPoint" />
          </mxGeometry>
        </mxCell>
        <mxCell id="uPZLiC8aT8bxoms4S5KQ-6" value="" style="endArrow=none;html=1;rounded=0;" edge="1" parent="1">
          <mxGeometry width="50" height="50" relative="1" as="geometry">
            <mxPoint x="700" y="160" as="sourcePoint" />
            <mxPoint x="90" y="160" as="targetPoint" />
          </mxGeometry>
        </mxCell>
        <mxCell id="uPZLiC8aT8bxoms4S5KQ-7" style="edgeStyle=orthogonalEdgeStyle;rounded=0;orthogonalLoop=1;jettySize=auto;html=1;" edge="1" parent="1" source="uPZLiC8aT8bxoms4S5KQ-8" target="uPZLiC8aT8bxoms4S5KQ-10">
          <mxGeometry relative="1" as="geometry" />
        </mxCell>
        <mxCell id="uPZLiC8aT8bxoms4S5KQ-8" value="" style="ellipse;fillColor=strokeColor;html=1;" vertex="1" parent="1">
          <mxGeometry x="145" y="170" width="20" height="20" as="geometry" />
        </mxCell>
        <mxCell id="uPZLiC8aT8bxoms4S5KQ-81" style="edgeStyle=orthogonalEdgeStyle;rounded=0;orthogonalLoop=1;jettySize=auto;html=1;fontFamily=Helvetica;fontSize=9;fontColor=default;" edge="1" parent="1" source="uPZLiC8aT8bxoms4S5KQ-10" target="uPZLiC8aT8bxoms4S5KQ-57">
          <mxGeometry relative="1" as="geometry" />
        </mxCell>
        <mxCell id="uPZLiC8aT8bxoms4S5KQ-10" value="Select replic" style="html=1;align=center;verticalAlign=top;rounded=1;absoluteArcSize=1;arcSize=10;dashed=0;whiteSpace=wrap;" vertex="1" parent="1">
          <mxGeometry x="110" y="220" width="90" height="30" as="geometry" />
        </mxCell>
        <mxCell id="uPZLiC8aT8bxoms4S5KQ-63" style="edgeStyle=orthogonalEdgeStyle;rounded=0;orthogonalLoop=1;jettySize=auto;html=1;fontFamily=Helvetica;fontSize=9;fontColor=default;" edge="1" parent="1" source="uPZLiC8aT8bxoms4S5KQ-42" target="uPZLiC8aT8bxoms4S5KQ-62">
          <mxGeometry relative="1" as="geometry">
            <Array as="points">
              <mxPoint x="155" y="340" />
            </Array>
          </mxGeometry>
        </mxCell>
        <mxCell id="uPZLiC8aT8bxoms4S5KQ-42" value="Authenticate" style="html=1;align=center;verticalAlign=top;rounded=1;absoluteArcSize=1;arcSize=10;dashed=0;whiteSpace=wrap;" vertex="1" parent="1">
          <mxGeometry x="112.5" y="280" width="85" height="30" as="geometry" />
        </mxCell>
        <mxCell id="uPZLiC8aT8bxoms4S5KQ-47" value="" style="shape=sumEllipse;perimeter=ellipsePerimeter;html=1;backgroundOutline=1;strokeColor=default;align=center;verticalAlign=middle;spacingBottom=7;fontFamily=Helvetica;fontSize=9;fontColor=default;fillColor=default;" vertex="1" parent="1">
          <mxGeometry x="135" y="710" width="30" height="30" as="geometry" />
        </mxCell>
        <mxCell id="uPZLiC8aT8bxoms4S5KQ-52" style="edgeStyle=orthogonalEdgeStyle;rounded=0;orthogonalLoop=1;jettySize=auto;html=1;fontFamily=Helvetica;fontSize=9;fontColor=default;" edge="1" parent="1" source="uPZLiC8aT8bxoms4S5KQ-49" target="uPZLiC8aT8bxoms4S5KQ-47">
          <mxGeometry relative="1" as="geometry" />
        </mxCell>
        <mxCell id="uPZLiC8aT8bxoms4S5KQ-49" value="Redirect to replic" style="html=1;align=center;verticalAlign=top;rounded=1;absoluteArcSize=1;arcSize=10;dashed=0;whiteSpace=wrap;" vertex="1" parent="1">
          <mxGeometry x="100" y="640" width="100" height="30" as="geometry" />
        </mxCell>
        <mxCell id="uPZLiC8aT8bxoms4S5KQ-59" value="[Authenticated]" style="edgeStyle=orthogonalEdgeStyle;rounded=0;orthogonalLoop=1;jettySize=auto;html=1;fontFamily=Helvetica;fontSize=9;fontColor=default;" edge="1" parent="1" source="uPZLiC8aT8bxoms4S5KQ-57" target="uPZLiC8aT8bxoms4S5KQ-58">
          <mxGeometry x="0.2329" relative="1" as="geometry">
            <Array as="points">
              <mxPoint x="648" y="325" />
            </Array>
            <mxPoint as="offset" />
          </mxGeometry>
        </mxCell>
        <mxCell id="uPZLiC8aT8bxoms4S5KQ-69" value="[Password]" style="edgeStyle=orthogonalEdgeStyle;rounded=0;orthogonalLoop=1;jettySize=auto;html=1;fontFamily=Helvetica;fontSize=9;fontColor=default;" edge="1" parent="1" source="uPZLiC8aT8bxoms4S5KQ-57" target="uPZLiC8aT8bxoms4S5KQ-68">
          <mxGeometry x="-0.2616" relative="1" as="geometry">
            <Array as="points">
              <mxPoint x="648" y="280" />
              <mxPoint x="648" y="500" />
              <mxPoint x="155" y="500" />
            </Array>
            <mxPoint as="offset" />
          </mxGeometry>
        </mxCell>
        <mxCell id="uPZLiC8aT8bxoms4S5KQ-82" value="[None}" style="edgeStyle=orthogonalEdgeStyle;rounded=0;orthogonalLoop=1;jettySize=auto;html=1;fontFamily=Helvetica;fontSize=9;fontColor=default;" edge="1" parent="1" source="uPZLiC8aT8bxoms4S5KQ-57" target="uPZLiC8aT8bxoms4S5KQ-64">
          <mxGeometry x="0.3921" relative="1" as="geometry">
            <Array as="points">
              <mxPoint x="647" y="605" />
            </Array>
            <mxPoint as="offset" />
          </mxGeometry>
        </mxCell>
        <mxCell id="uPZLiC8aT8bxoms4S5KQ-57" value="Access-level?" style="rhombus;fontSize=9;" vertex="1" parent="1">
          <mxGeometry x="600" y="210" width="95" height="50" as="geometry" />
        </mxCell>
        <mxCell id="uPZLiC8aT8bxoms4S5KQ-61" value="[no]" style="edgeStyle=orthogonalEdgeStyle;rounded=0;orthogonalLoop=1;jettySize=auto;html=1;fontFamily=Helvetica;fontSize=9;fontColor=default;" edge="1" parent="1" source="uPZLiC8aT8bxoms4S5KQ-58" target="uPZLiC8aT8bxoms4S5KQ-42">
          <mxGeometry relative="1" as="geometry">
            <Array as="points">
              <mxPoint x="483" y="295" />
            </Array>
          </mxGeometry>
        </mxCell>
        <mxCell id="uPZLiC8aT8bxoms4S5KQ-65" value="[yes]" style="edgeStyle=orthogonalEdgeStyle;rounded=0;orthogonalLoop=1;jettySize=auto;html=1;fontFamily=Helvetica;fontSize=9;fontColor=default;" edge="1" parent="1" source="uPZLiC8aT8bxoms4S5KQ-58" target="uPZLiC8aT8bxoms4S5KQ-64">
          <mxGeometry x="-0.7642" relative="1" as="geometry">
            <Array as="points">
              <mxPoint x="483" y="395" />
            </Array>
            <mxPoint as="offset" />
          </mxGeometry>
        </mxCell>
        <mxCell id="uPZLiC8aT8bxoms4S5KQ-58" value="Authenticated?" style="rhombus;fontSize=9;" vertex="1" parent="1">
          <mxGeometry x="435" y="300" width="95" height="50" as="geometry" />
        </mxCell>
        <mxCell id="uPZLiC8aT8bxoms4S5KQ-66" value="[yes]" style="edgeStyle=orthogonalEdgeStyle;rounded=0;orthogonalLoop=1;jettySize=auto;html=1;fontFamily=Helvetica;fontSize=9;fontColor=default;" edge="1" parent="1" source="uPZLiC8aT8bxoms4S5KQ-62" target="uPZLiC8aT8bxoms4S5KQ-64">
          <mxGeometry x="-0.5321" relative="1" as="geometry">
            <mxPoint as="offset" />
          </mxGeometry>
        </mxCell>
        <mxCell id="uPZLiC8aT8bxoms4S5KQ-75" value="[no]" style="edgeStyle=orthogonalEdgeStyle;rounded=0;orthogonalLoop=1;jettySize=auto;html=1;fontFamily=Helvetica;fontSize=9;fontColor=default;" edge="1" parent="1" source="uPZLiC8aT8bxoms4S5KQ-62" target="uPZLiC8aT8bxoms4S5KQ-74">
          <mxGeometry relative="1" as="geometry" />
        </mxCell>
        <mxCell id="uPZLiC8aT8bxoms4S5KQ-62" value="Success?" style="rhombus;fontSize=9;" vertex="1" parent="1">
          <mxGeometry x="310" y="320" width="80" height="40" as="geometry" />
        </mxCell>
        <mxCell id="uPZLiC8aT8bxoms4S5KQ-83" style="edgeStyle=orthogonalEdgeStyle;rounded=0;orthogonalLoop=1;jettySize=auto;html=1;fontFamily=Helvetica;fontSize=9;fontColor=default;" edge="1" parent="1" source="uPZLiC8aT8bxoms4S5KQ-64" target="uPZLiC8aT8bxoms4S5KQ-49">
          <mxGeometry relative="1" as="geometry">
            <Array as="points">
              <mxPoint x="428" y="655" />
            </Array>
          </mxGeometry>
        </mxCell>
        <mxCell id="uPZLiC8aT8bxoms4S5KQ-64" value="" style="rhombus;strokeColor=default;align=center;verticalAlign=middle;spacingBottom=7;fontFamily=Helvetica;fontSize=9;fontColor=default;fillColor=default;" vertex="1" parent="1">
          <mxGeometry x="413" y="590" width="30" height="30" as="geometry" />
        </mxCell>
        <mxCell id="uPZLiC8aT8bxoms4S5KQ-71" style="edgeStyle=orthogonalEdgeStyle;rounded=0;orthogonalLoop=1;jettySize=auto;html=1;fontFamily=Helvetica;fontSize=9;fontColor=default;" edge="1" parent="1" source="uPZLiC8aT8bxoms4S5KQ-68" target="uPZLiC8aT8bxoms4S5KQ-70">
          <mxGeometry relative="1" as="geometry">
            <Array as="points">
              <mxPoint x="155" y="520" />
            </Array>
          </mxGeometry>
        </mxCell>
        <mxCell id="uPZLiC8aT8bxoms4S5KQ-68" value="Enter password" style="html=1;align=center;verticalAlign=top;rounded=1;absoluteArcSize=1;arcSize=10;dashed=0;whiteSpace=wrap;" vertex="1" parent="1">
          <mxGeometry x="105" y="520" width="100" height="30" as="geometry" />
        </mxCell>
        <mxCell id="uPZLiC8aT8bxoms4S5KQ-72" value="[yes]" style="edgeStyle=orthogonalEdgeStyle;rounded=0;orthogonalLoop=1;jettySize=auto;html=1;fontFamily=Helvetica;fontSize=9;fontColor=default;" edge="1" parent="1" source="uPZLiC8aT8bxoms4S5KQ-70" target="uPZLiC8aT8bxoms4S5KQ-64">
          <mxGeometry relative="1" as="geometry">
            <Array as="points">
              <mxPoint x="350" y="565" />
            </Array>
          </mxGeometry>
        </mxCell>
        <mxCell id="uPZLiC8aT8bxoms4S5KQ-76" value="[no]" style="edgeStyle=orthogonalEdgeStyle;rounded=0;orthogonalLoop=1;jettySize=auto;html=1;fontFamily=Helvetica;fontSize=9;fontColor=default;" edge="1" parent="1" source="uPZLiC8aT8bxoms4S5KQ-70" target="uPZLiC8aT8bxoms4S5KQ-74">
          <mxGeometry relative="1" as="geometry" />
        </mxCell>
        <mxCell id="uPZLiC8aT8bxoms4S5KQ-70" value="Success?" style="rhombus;fontSize=9;" vertex="1" parent="1">
          <mxGeometry x="310" y="550" width="80" height="40" as="geometry" />
        </mxCell>
        <mxCell id="uPZLiC8aT8bxoms4S5KQ-80" style="edgeStyle=orthogonalEdgeStyle;rounded=0;orthogonalLoop=1;jettySize=auto;html=1;fontFamily=Helvetica;fontSize=9;fontColor=default;" edge="1" parent="1" source="uPZLiC8aT8bxoms4S5KQ-73" target="uPZLiC8aT8bxoms4S5KQ-78">
          <mxGeometry relative="1" as="geometry" />
        </mxCell>
        <mxCell id="uPZLiC8aT8bxoms4S5KQ-73" value="Show error" style="html=1;align=center;verticalAlign=top;rounded=1;absoluteArcSize=1;arcSize=10;dashed=0;whiteSpace=wrap;" vertex="1" parent="1">
          <mxGeometry x="112.5" y="390" width="85" height="30" as="geometry" />
        </mxCell>
        <mxCell id="uPZLiC8aT8bxoms4S5KQ-77" style="edgeStyle=orthogonalEdgeStyle;rounded=0;orthogonalLoop=1;jettySize=auto;html=1;fontFamily=Helvetica;fontSize=9;fontColor=default;" edge="1" parent="1" source="uPZLiC8aT8bxoms4S5KQ-74" target="uPZLiC8aT8bxoms4S5KQ-73">
          <mxGeometry relative="1" as="geometry" />
        </mxCell>
        <mxCell id="uPZLiC8aT8bxoms4S5KQ-74" value="" style="rhombus;strokeColor=default;align=center;verticalAlign=middle;spacingBottom=7;fontFamily=Helvetica;fontSize=9;fontColor=default;fillColor=default;" vertex="1" parent="1">
          <mxGeometry x="335" y="390" width="30" height="30" as="geometry" />
        </mxCell>
        <mxCell id="uPZLiC8aT8bxoms4S5KQ-78" value="" style="shape=sumEllipse;perimeter=ellipsePerimeter;html=1;backgroundOutline=1;strokeColor=default;align=center;verticalAlign=middle;spacingBottom=7;fontFamily=Helvetica;fontSize=9;fontColor=default;fillColor=default;" vertex="1" parent="1">
          <mxGeometry x="140" y="450" width="30" height="30" as="geometry" />
        </mxCell>
      </root>
    </mxGraphModel>
  </diagram>
</mxfile>
